<?xml version="1.0" encoding="utf-8"?>
<!-- Generator: Adobe Illustrator 27.2.0, SVG Export Plug-In . SVG Version: 6.00 Build 0)  -->
<svg version="1.1" id="Layer_1" xmlns="http://www.w3.org/2000/svg" xmlns:xlink="http://www.w3.org/1999/xlink" x="0px" y="0px"
	 viewBox="0 0 375 812" style="enable-background:new 0 0 375 812;" xml:space="preserve">
<style type="text/css">
	.st0{fill:#EBF8EE;}
	.st1{fill:#41D294;}
	.st2{opacity:0.1;fill:none;stroke:#FFFFFF;enable-background:new    ;}
</style>
<g>
	<g>
		<path class="st0" d="M22,0h331c12.2,0,22,9.8,22,22v768c0,12.2-9.8,22-22,22H22c-12.2,0-22-9.8-22-22V22C0,9.8,9.8,0,22,0z"/>
		<rect x="-21" y="-529" class="st1" width="466" height="1350"/>
		<path class="st2" d="M52.5-3H-15v152 M52.5-3h131.6 M52.5-3L120,47.7 M52.5-3v96.3 M52.5,301H-15v-50.7 M52.5,301l64.1-48.1
			 M52.5,301V199.7 M52.5,301L-15,250.3 M52.5,301h131.6 M116.6,252.9h135 M116.6,252.9l-64.1-53.2 M251.6,252.9l64.1,48.1
			 M251.6,252.9L184.1,301 M251.6,252.9l3.4-98.8 M251.6,252.9l-67.5-50.7 M315.8,301H390v-55.7 M315.8,301l74.2-55.7 M315.8,301
			V199.7 M315.8,301H184.1 M390,245.3v-86.1 M315.8,199.7L255,154.1 M315.8,199.7l74.2-40.5 M255,154.1l64.1-48.1 M255,154.1V50.2
			 M255,154.1l-70.9,48.1 M319.1,105.9l70.9,53.2 M319.1,105.9V2.1 M319.1-3H390v50.7 M319.1-3v5.1 M319.1-3h-135 M319.1-3L390,47.7
			 M390,159.1V47.7 M255,50.2l64.1-48.1 M255,50.2L184.1-3 M255,50.2l-67.5,48.1 M255,50.2l-135-2.5 M187.5,98.3L120,47.7
			 M187.5,98.3l-3.4,103.9 M120,47.7L52.5,93.3 M120,47.7l-3.4,103.9 M52.5,93.3v5.1 M-15,149l67.5-50.7 M-15,149l67.5,50.7
			 M-15,149v101.3 M52.5,98.3v101.3 M52.5,199.7l64.1-48.1 M52.5,199.7l131.6,2.5 M116.6,151.5l67.5,50.7"/>
		<path class="st2" d="M52.5,314H-15v152 M52.5,314h131.6 M52.5,314l67.5,50.7 M52.5,314v96.3 M52.5,618H-15v-50.7 M52.5,618
			l64.1-48.1 M52.5,618V516.7 M52.5,618L-15,567.3 M52.5,618h131.6 M116.6,569.9h135 M116.6,569.9l-64.1-53.2 M251.6,569.9
			l64.1,48.1 M251.6,569.9L184.1,618 M251.6,569.9l3.4-98.8 M251.6,569.9l-67.5-50.7 M315.8,618H390v-55.7 M315.8,618l74.2-55.7
			 M315.8,618V516.7 M315.8,618H184.1 M390,562.3v-86.1 M315.8,516.7L255,471.1 M315.8,516.7l74.2-40.5 M255,471.1l64.1-48.1
			 M255,471.1V367.2 M255,471.1l-70.9,48.1 M319.1,422.9l70.9,53.2 M319.1,422.9V319.1 M319.1,314H390v50.7 M319.1,314v5.1
			 M319.1,314h-135 M319.1,314l70.9,50.7 M390,476.1V364.7 M255,367.2l64.1-48.1 M255,367.2L184.1,314 M255,367.2l-67.5,48.1
			 M255,367.2l-135-2.5 M187.5,415.3L120,364.7 M187.5,415.3l-3.4,103.9 M120,364.7l-67.5,45.6 M120,364.7l-3.4,103.9 M52.5,410.3
			v5.1 M-15,466l67.5-50.7 M-15,466l67.5,50.7 M-15,466v101.3 M52.5,415.3v101.3 M52.5,516.7l64.1-48.1 M52.5,516.7l131.6,2.5
			 M116.6,468.5l67.5,50.7"/>
		<path class="st2" d="M74.5,631H7v152 M74.5,631h131.6 M74.5,631l67.5,50.7 M74.5,631v96.3 M74.5,935H7v-50.7 M74.5,935l64.1-48.1
			 M74.5,935V833.7 M74.5,935L7,884.3 M74.5,935h131.6 M138.6,886.9h135 M138.6,886.9l-64.1-53.2 M273.6,886.9l64.1,48.1
			 M273.6,886.9L206.1,935 M273.6,886.9l3.4-98.8 M273.6,886.9l-67.5-50.7 M337.8,935H412v-55.7 M337.8,935l74.2-55.7 M337.8,935
			V833.7 M337.8,935H206.1 M412,879.3v-86.1 M337.8,833.7L277,788.1 M337.8,833.7l74.2-40.5 M277,788.1l64.1-48.1 M277,788.1V684.2
			 M277,788.1l-70.9,48.1 M341.1,739.9l70.9,53.2 M341.1,739.9V636.1 M341.1,631H412v50.7 M341.1,631v5.1 M341.1,631h-135
			 M341.1,631l70.9,50.7 M412,793.1V681.7 M277,684.2l64.1-48.1 M277,684.2L206.1,631 M277,684.2l-67.5,48.1 M277,684.2l-135-2.5
			 M209.5,732.3L142,681.7 M209.5,732.3l-3.4,103.9 M142,681.7l-67.5,45.6 M142,681.7l-3.4,103.9 M74.5,727.3v5.1 M7,783l67.5-50.7
			 M7,783l67.5,50.7 M7,783v101.3 M74.5,732.3v101.3 M74.5,833.7l64.1-48.1 M74.5,833.7l131.6,2.5 M138.6,785.5l67.5,50.7"/>
	</g>
</g>
</svg>
