<svg width="40" height="40" viewBox="0 0 40 40" fill="none" xmlns="http://www.w3.org/2000/svg">
<circle cx="20" cy="20" r="20" fill="#F7931A"/>
<path fill-rule="evenodd" clip-rule="evenodd" d="M27.8436 18.0202C28.1533 15.9239 26.5773 14.797 24.4222 14.0453L25.1213 11.2057L23.4145 10.7749L22.7339 13.5397C22.2852 13.4265 21.8243 13.3196 21.3664 13.2138L22.0518 10.4308L20.346 10L19.6464 12.8386C19.275 12.753 18.9104 12.6683 18.5565 12.5792L18.5585 12.5703L16.2046 11.9751L15.7505 13.8213C15.7505 13.8213 17.0169 14.1152 16.9902 14.1334C17.6815 14.3082 17.8064 14.7714 17.7855 15.1387L16.9892 18.3737C17.0369 18.386 17.0986 18.4037 17.1667 18.4313L17.1088 18.4166L17.1086 18.4166C17.0691 18.4065 17.0281 18.3961 16.9863 18.386L15.8701 22.9177C15.7856 23.1303 15.5712 23.4494 15.0879 23.3282C15.105 23.3534 13.8473 23.0146 13.8473 23.0146L13 24.9932L15.2211 25.554C15.4692 25.6169 15.7143 25.6816 15.9568 25.7457C16.1183 25.7883 16.2786 25.8307 16.4379 25.872L15.7316 28.7441L17.4365 29.1749L18.136 26.3333C18.6017 26.4613 19.0538 26.5794 19.4962 26.6907L18.7991 29.519L20.5059 29.9498L21.2123 27.0831C24.1228 27.6409 26.3113 27.4159 27.2326 24.75C27.9749 22.6036 27.1956 21.3654 25.6643 20.558C26.7795 20.2976 27.6195 19.5547 27.8436 18.0202ZM23.9439 23.5582C23.4599 25.5274 20.4161 24.7133 19.0234 24.3408L19.0233 24.3407C18.898 24.3072 18.7862 24.2773 18.6907 24.2533L19.628 20.4482C19.7443 20.4776 19.8863 20.5099 20.0473 20.5465C21.4877 20.8738 24.4397 21.5446 23.9439 23.5582ZM20.3367 18.7807C21.4979 19.0945 24.0306 19.779 24.4718 17.9892C24.9223 16.1584 22.4607 15.6066 21.2585 15.337C21.1232 15.3067 21.0039 15.28 20.9065 15.2554L20.0567 18.7065C20.137 18.7267 20.2312 18.7522 20.3367 18.7807Z" fill="white"/>
</svg>
