<svg width="178" height="85" viewBox="0 0 178 85" fill="none" xmlns="http://www.w3.org/2000/svg">
<path d="M15.3351 29.0096C17.7185 34.0272 21.0426 37.8845 25.3076 40.5814C32.1441 44.8464 38.5102 40.895 44.4059 28.7273C44.4686 28.4764 44.5627 28.2256 44.6882 27.9747C42.3048 22.7689 40.4546 18.9743 39.1374 16.591C34.9352 8.81364 30.7016 3.98419 26.4366 2.10258C22.1089 0.158255 13.2967 -0.437582 0 0.315061L15.3351 29.0096Z" fill="url(#paint0_linear_945_2335)"/>
<path d="M85.6132 2.0085C85.8013 1.31858 85.9895 0.722743 86.1777 0.220981C68.9923 -0.719822 57.7654 3.07476 52.4969 11.6047C49.7372 15.7442 46.1935 23.7097 41.8658 35.5011C40.7369 38.7626 39.4197 42.7453 37.9144 47.4493C36.5346 51.5888 34.9666 56.2929 33.2104 61.5614C31.5797 66.2654 28.9455 73.9486 25.3077 84.6111H36.6914C49.2354 84.4856 57.3577 79.8757 61.0582 70.7812L85.6132 2.0085ZM98.9726 38.6998C98.2709 41.0972 97.4869 43.7941 96.6206 46.7908C96.5588 47.009 96.4961 47.2286 96.4324 47.4493C96.3697 47.7629 96.2756 48.0765 96.1502 48.3901C96.0762 48.6319 95.9821 48.8828 95.8679 49.1428C94.7747 52.8339 93.5517 56.9735 92.1988 61.5614C90.7562 66.2654 88.4042 73.9486 85.1428 84.6111H96.5265C109.071 84.4856 117.036 79.8757 120.423 70.7812L142.438 2.0085C142.626 1.31858 142.814 0.722743 143.002 0.220981C125.817 -0.719822 114.715 3.07476 109.698 11.6047C107.189 15.6815 103.865 23.9606 99.7252 36.4419L99.1607 38.2294C99.098 38.4176 99.0353 38.5744 98.9726 38.6998Z" fill="white"/>
<path d="M173.955 73.6036C173.515 72.4119 170.003 64.0074 163.418 48.3901C158.4 36.536 151.595 20.4796 143.002 0.220963L131.336 48.3901L139.145 68.8996C142.469 77.2414 147.769 82.259 155.044 83.9525C156.675 84.3288 158.431 84.5483 160.313 84.611H178C177.937 84.4229 177.843 84.2034 177.718 83.9525C176.589 81.1301 175.334 77.6805 173.955 73.6036Z" fill="url(#paint1_linear_945_2335)"/>
<path d="M96.6205 46.7907C97.4868 43.7941 98.2708 41.0972 98.9725 38.6998C97.5299 34.8739 93.3277 22.0476 86.3657 0.220963L85.8012 2.66706C85.7385 2.60434 85.6444 2.57297 85.519 2.57297L84.296 8.40595L84.39 8.12371L73.1004 48.3901L85.1427 84.611C88.4041 73.9486 90.7562 66.2654 92.1987 61.5613C93.5516 56.9735 94.7747 52.8339 95.8678 49.1427C95.982 48.8828 96.0761 48.6319 96.1501 48.3901C96.2755 48.0765 96.3696 47.7629 96.4323 47.4493C96.496 47.2285 96.5588 47.009 96.6205 46.7907Z" fill="url(#paint2_linear_945_2335)"/>
<defs>
<linearGradient id="paint0_linear_945_2335" x1="22.3206" y1="-19.0184" x2="44.8528" y2="23.2236" gradientUnits="userSpaceOnUse">
<stop stop-color="white" stop-opacity="0.0470588"/>
<stop offset="1" stop-color="white"/>
</linearGradient>
<linearGradient id="paint1_linear_945_2335" x1="136.299" y1="25.7873" x2="196.557" y2="66.4771" gradientUnits="userSpaceOnUse">
<stop stop-color="white" stop-opacity="0.0470588"/>
<stop offset="0.698039" stop-color="white"/>
</linearGradient>
<linearGradient id="paint2_linear_945_2335" x1="82.0616" y1="24.0468" x2="126.985" y2="55.0463" gradientUnits="userSpaceOnUse">
<stop stop-color="white" stop-opacity="0.0470588"/>
<stop offset="0.698039" stop-color="white"/>
</linearGradient>
</defs>
</svg>
